<svg width="69" height="64" viewBox="0 0 69 64" fill="none" xmlns="http://www.w3.org/2000/svg">
<g filter="url(#filter0_i_2_19)">
<path d="M31.8423 39.9744C26.9032 37.2056 24.5233 34.6252 27.4147 29.4675C29.6741 25.4371 30.3992 24.2621 34.7101 26.6787C41.2765 30.3598 47.7128 32.1141 43.0102 40.5029C40.9275 44.2182 39.5774 46.5556 36.3522 48.7442C33.355 50.778 30.5855 49.2391 26.8438 48.8912C23.2594 48.5579 19.07 45.6441 15.996 43.7017C13.6311 42.2075 13.9762 33.8226 14.1014 31.1756C14.2504 28.0283 17.3646 22.8551 18.9032 20.1104C20.7234 16.8635 23.7675 14.8841 27.5569 14.8986C34.7025 14.9261 38.8316 14.0858 45.6223 17.8926C52.9025 21.9738 57.7639 27.5913 56.3205 36.7551C55.5134 41.879 54.9499 45.7896 52.394 50.349C51.1493 52.5692 48.8898 57.3305 46.5466 58.2804C43.851 59.373 40.7806 60.9746 37.8899 61.4524C33.8877 62.1139 29.5152 59.5407 25.6603 59.1823C21.6788 58.8122 6.60764 50.2776 5.40823 46.6829C4.92385 45.2312 3.10015 42.5367 3.6812 41.1291C4.71151 38.6333 2.17969 38.2122 2.23319 35.9865C2.26 34.8715 3.17222 32.0668 3.61202 31.0274C4.31792 29.3591 2.84539 27.8788 3.25363 25.9861C4.08683 22.1231 11.12 8.21269 14.4961 7.06742C17.6115 6.01057 19.7784 3.85228 22.9398 3.13909C24.0231 2.89469 25.722 1.93337 26.8298 1.88053C28.1203 1.81897 29.7889 2.64018 30.8314 2.46786C37.1538 1.42285 42.9296 4.91901 48.5738 8.08307C53.7004 10.957 65.9688 14.8813 66.1033 21.3491C66.1423 23.225 66.965 24.1458 66.7642 26.3052C66.5972 28.1015 65.8961 29.8626 66.2576 31.7533C67.0106 35.6904 63.7415 39.0261 65.7292 42.9212" stroke="#2F95F3" stroke-width="3" stroke-linecap="round"/>
</g>
<defs>
<filter id="filter0_i_2_19" x="0.732422" y="0.377441" width="67.5632" height="66.6827" filterUnits="userSpaceOnUse" color-interpolation-filters="sRGB">
<feFlood flood-opacity="0" result="BackgroundImageFix"/>
<feBlend mode="normal" in="SourceGraphic" in2="BackgroundImageFix" result="shape"/>
<feColorMatrix in="SourceAlpha" type="matrix" values="0 0 0 0 0 0 0 0 0 0 0 0 0 0 0 0 0 0 127 0" result="hardAlpha"/>
<feOffset dy="4"/>
<feGaussianBlur stdDeviation="2"/>
<feComposite in2="hardAlpha" operator="arithmetic" k2="-1" k3="1"/>
<feColorMatrix type="matrix" values="0 0 0 0 0 0 0 0 0 0 0 0 0 0 0 0 0 0 0.25 0"/>
<feBlend mode="normal" in2="shape" result="effect1_innerShadow_2_19"/>
</filter>
</defs>
</svg>
