<svg width="101" height="36" viewBox="0 0 101 36" fill="none" xmlns="http://www.w3.org/2000/svg">
<g filter="url(#filter0_i_2_2)">
<path d="M14.0938 29.4951C14.2585 29.9144 14.4307 30.3187 14.6104 30.708C14.79 31.0824 14.9922 31.4193 15.2168 31.7188C15.4414 32.0182 15.696 32.2578 15.9805 32.4375C16.265 32.6172 16.5869 32.707 16.9463 32.707C17.1859 32.707 17.4404 32.6546 17.71 32.5498C17.9945 32.46 18.3014 32.2952 18.6309 32.0557L18.7432 32.123L17.126 35.9414C16.1676 35.9414 15.3366 35.7917 14.6328 35.4922C13.944 35.1927 13.3525 34.7884 12.8584 34.2793C12.3643 33.7702 11.9525 33.1712 11.623 32.4824C11.3086 31.7936 11.0465 31.0524 10.8369 30.2588L7.44531 17.793C7.40039 17.8229 7.29557 17.8529 7.13086 17.8828C6.96615 17.8978 6.78646 17.9202 6.5918 17.9502C6.41211 17.9652 6.23242 17.9876 6.05273 18.0176C5.88802 18.0326 5.77572 18.04 5.71582 18.04C5.73079 18.7887 5.73828 19.5749 5.73828 20.3984C5.75326 21.207 5.76823 22.0306 5.7832 22.8691C5.79818 23.6927 5.81315 24.5088 5.82812 25.3174C5.8431 26.126 5.85807 26.9046 5.87305 27.6533C5.93294 28.4619 6.14258 29.1432 6.50195 29.6973C6.86133 30.2363 7.42285 30.6331 8.18652 30.8877V31H0.078125V30.8877C0.841797 30.6331 1.38835 30.2139 1.71777 29.6299C2.0472 29.0459 2.24186 28.3571 2.30176 27.5635C2.40658 25.1527 2.48893 22.9141 2.54883 20.8477C2.6237 18.7812 2.66113 16.7673 2.66113 14.8057C2.66113 13.0537 2.64616 11.3167 2.61621 9.59473C2.60124 7.87272 2.50391 6.06836 2.32422 4.18164C2.24935 3.47786 2.02474 2.87891 1.65039 2.38477C1.29102 1.87565 0.766927 1.51628 0.078125 1.30664V1.19434H8.05176C8.98014 1.19434 9.84863 1.34408 10.6572 1.64355C11.4658 1.92806 12.1621 2.35482 12.7461 2.92383C13.3451 3.49284 13.8167 4.19661 14.1611 5.03516C14.5055 5.8737 14.6777 6.83952 14.6777 7.93262C14.6777 10.1488 14.2734 12.0055 13.4648 13.5029C12.6562 15.0003 11.5856 16.1009 10.2529 16.8047C10.8219 18.8711 11.3984 20.945 11.9824 23.0264C12.5664 25.1077 13.2702 27.264 14.0938 29.4951ZM5.6709 13.6152C5.6709 13.9147 5.66341 14.2142 5.64844 14.5137C5.64844 14.7982 5.65592 15.1126 5.6709 15.457C7.54264 15.457 8.8903 14.8281 9.71387 13.5703C10.5524 12.3125 10.9717 10.4333 10.9717 7.93262C10.9717 6.52507 10.6947 5.45443 10.1406 4.7207C9.60156 3.97201 8.78548 3.59766 7.69238 3.59766C7.42285 3.59766 7.11589 3.60514 6.77148 3.62012C6.42708 3.62012 6.1276 3.63509 5.87305 3.66504V4.56348C5.82812 5.65658 5.79069 6.74219 5.76074 7.82031C5.73079 8.7487 5.70833 9.73698 5.69336 10.7852C5.67839 11.8184 5.6709 12.7617 5.6709 13.6152ZM25.1895 23.3408L30.1084 23.79C30.1084 25.1377 29.9137 26.3057 29.5244 27.2939C29.1501 28.2673 28.6634 29.0833 28.0645 29.7422C27.4805 30.3861 26.8291 30.8652 26.1104 31.1797C25.3916 31.4941 24.6878 31.6514 23.999 31.6514C23.0107 31.6514 22.0898 31.3968 21.2363 30.8877C20.3828 30.3786 19.6416 29.6374 19.0127 28.6641C18.3838 27.6908 17.8896 26.4928 17.5303 25.0703C17.1709 23.6478 16.9912 22.0156 16.9912 20.1738C16.9912 18.332 17.1709 16.6999 17.5303 15.2773C17.8896 13.8548 18.3838 12.6569 19.0127 11.6836C19.6416 10.7103 20.3828 9.96908 21.2363 9.45996C22.0898 8.95085 23.0107 8.69629 23.999 8.69629C24.8226 8.69629 25.5788 8.9209 26.2676 9.37012C26.9714 9.80436 27.5853 10.4557 28.1094 11.3242C28.6335 12.1777 29.0527 13.2484 29.3672 14.5361C29.6966 15.8089 29.8988 17.2764 29.9736 18.9385L20.4727 22.2627C20.6673 24.7184 21.1016 26.5078 21.7754 27.6309C22.4492 28.7389 23.3027 29.293 24.3359 29.293C24.8301 29.293 25.2419 29.2031 25.5713 29.0234C25.9157 28.8288 26.1927 28.5817 26.4023 28.2822C26.627 27.9678 26.7842 27.6234 26.874 27.249C26.9788 26.8597 27.0312 26.4629 27.0312 26.0586C27.0312 25.5794 26.874 25.1077 26.5596 24.6436C26.2601 24.1794 25.7959 23.7826 25.167 23.4531L25.1895 23.3408ZM20.3604 20.2637C20.7946 20.099 21.3337 19.8893 21.9775 19.6348C22.6214 19.3802 23.43 19.0283 24.4033 18.5791C24.9574 18.3245 25.4365 18.07 25.8408 17.8154C26.2451 17.5609 26.6045 17.3438 26.9189 17.1641C26.7692 15.0827 26.4473 13.5479 25.9531 12.5596C25.474 11.5713 24.8226 11.0771 23.999 11.0771C22.846 11.0771 21.9476 11.8408 21.3037 13.3682C20.6748 14.8955 20.3604 17.1641 20.3604 20.1738V20.2637ZM34.7354 30.9102L35.0049 30.7979C35.4691 30.5882 35.7985 30.2812 35.9932 29.877C36.1878 29.4577 36.2702 28.9785 36.2402 28.4395C36.1055 27.1667 35.9183 25.9613 35.6787 24.8232C35.4391 23.6702 35.1921 22.4948 34.9375 21.2969C34.668 19.9043 34.3685 18.4818 34.0391 17.0293C33.7246 15.5618 33.3577 13.9896 32.9385 12.3125C32.7738 11.6387 32.5042 11.0472 32.1299 10.5381C31.7705 10.029 31.2464 9.6696 30.5576 9.45996L30.5352 9.37012H37.6104L37.6328 9.45996C37.0189 9.6696 36.5921 10.014 36.3525 10.4932C36.1279 10.9723 36.0531 11.5488 36.1279 12.2227C36.3376 13.9447 36.6071 15.6742 36.9365 17.4111C37.266 19.1331 37.5804 20.8701 37.8799 22.6221C37.9997 23.3558 38.127 24.1419 38.2617 24.9805C38.4115 25.804 38.5612 26.68 38.7109 27.6084C38.8607 26.695 39.0029 25.819 39.1377 24.9805C39.2874 24.1419 39.4222 23.3558 39.542 22.6221C39.8415 20.8701 40.111 19.1331 40.3506 17.4111C40.6051 15.6742 40.8372 13.9447 41.0469 12.2227C41.1217 11.5488 41.0394 10.9723 40.7998 10.4932C40.5752 10.014 40.1559 9.6696 39.542 9.45996L39.5645 9.37012H46.752V9.45996C46.4525 9.56478 46.1755 9.69954 45.9209 9.86426C45.5915 10.1188 45.3669 10.4482 45.2471 10.8525C45.1273 11.2568 45.0973 11.7135 45.1572 12.2227C45.3669 13.9447 45.6364 15.6742 45.9658 17.4111C46.2952 19.1331 46.6097 20.8701 46.9092 22.6221C47.029 23.3558 47.1562 24.1419 47.291 24.9805C47.4408 25.804 47.5905 26.68 47.7402 27.6084C47.89 26.695 48.0322 25.819 48.167 24.9805C48.3167 24.1419 48.4515 23.3558 48.5713 22.6221C48.8708 20.8701 49.1403 19.1331 49.3799 17.4111C49.6344 15.6742 49.8665 13.9447 50.0762 12.2227C50.151 11.5488 50.0687 10.9723 49.8291 10.4932C49.6045 10.014 49.1852 9.6696 48.5713 9.45996L48.5938 9.37012H55.7812V9.45996C55.0775 9.68457 54.5459 10.0514 54.1865 10.5605C53.8271 11.0547 53.5651 11.6387 53.4004 12.3125C52.9811 13.9896 52.6068 15.5618 52.2773 17.0293C51.9479 18.4818 51.6559 19.9043 51.4014 21.2969C51.1318 22.4948 50.8773 23.6702 50.6377 24.8232C50.3981 25.9613 50.2109 27.1667 50.0762 28.4395C50.0312 28.9785 50.1061 29.4577 50.3008 29.877C50.4954 30.2812 50.8249 30.5882 51.2891 30.7979L51.6035 30.9102L51.626 31H43.7422L43.7646 30.9102L44.0342 30.7979C44.4984 30.5882 44.8278 30.2812 45.0225 29.877C45.2171 29.4577 45.2995 28.9785 45.2695 28.4395C45.1348 26.8971 44.9476 25.4521 44.708 24.1045C44.4684 22.7419 44.2214 21.3568 43.9668 19.9492C43.847 19.1107 43.7197 18.2497 43.585 17.3662C43.4502 16.4827 43.3079 15.5993 43.1582 14.7158C43.0085 15.5993 42.8662 16.4827 42.7314 17.3662C42.6117 18.2497 42.4919 19.1107 42.3721 19.9492C42.1025 21.3568 41.848 22.7419 41.6084 24.1045C41.3688 25.4521 41.1816 26.8971 41.0469 28.4395C41.002 28.9785 41.0768 29.4577 41.2715 29.877C41.4661 30.2812 41.7956 30.5882 42.2598 30.7979L42.5742 30.9102L42.5967 31H34.7129L34.7354 30.9102ZM58.8359 19.3877C58.8359 17.9951 58.8285 16.8122 58.8135 15.8389C58.8135 14.8656 58.7835 14.057 58.7236 13.4131C58.6637 12.7542 58.5664 12.2376 58.4316 11.8633C58.3118 11.4889 58.1247 11.2119 57.8701 11.0322C57.6305 10.8376 57.3236 10.7178 56.9492 10.6729C56.5749 10.6279 56.1182 10.6055 55.5791 10.6055V10.4932L62.1152 8.69629C61.9505 10.3285 61.8607 12.1328 61.8457 14.1094C61.8457 16.071 61.8457 18.1074 61.8457 20.2188C61.8457 21.0573 61.8457 21.7611 61.8457 22.3301C61.8457 22.8991 61.8457 23.4382 61.8457 23.9473C61.8607 24.4564 61.8831 24.9954 61.9131 25.5645C61.943 26.1185 61.988 26.8148 62.0479 27.6533C62.1077 28.4619 62.3174 29.1432 62.6768 29.6973C63.0361 30.2363 63.5977 30.6331 64.3613 30.8877V31H56.2529V30.8877C57.0166 30.6331 57.5632 30.2139 57.8926 29.6299C58.222 29.0459 58.4167 28.3571 58.4766 27.5635C58.5065 26.8747 58.5365 26.2757 58.5664 25.7666C58.6113 25.2425 58.6413 24.7708 58.6562 24.3516C58.6862 23.9323 58.7087 23.543 58.7236 23.1836C58.7536 22.8242 58.776 22.4574 58.791 22.083C58.806 21.7087 58.8135 21.3118 58.8135 20.8926C58.8285 20.4583 58.8359 19.9567 58.8359 19.3877ZM57.96 3.26074C57.96 2.69173 58.1546 2.21257 58.5439 1.82324C58.9333 1.41895 59.4124 1.2168 59.9814 1.2168C60.5505 1.2168 61.0296 1.41895 61.4189 1.82324C61.8232 2.21257 62.0254 2.69173 62.0254 3.26074C62.0254 3.82975 61.8232 4.30892 61.4189 4.69824C61.0296 5.08757 60.5505 5.28223 59.9814 5.28223C59.4124 5.28223 58.9333 5.08757 58.5439 4.69824C58.1546 4.30892 57.96 3.82975 57.96 3.26074ZM80.4209 17.7031C80.4209 18.7513 80.4209 19.7171 80.4209 20.6006C80.4209 21.4691 80.4284 22.3226 80.4434 23.1611C80.4583 23.9997 80.4808 24.8532 80.5107 25.7217C80.5407 26.5902 80.5781 27.5335 80.623 28.5518C80.668 29.1208 80.8551 29.6074 81.1846 30.0117C81.514 30.401 82.0231 30.693 82.7119 30.8877V31H75.7041V30.8877C76.2282 30.723 76.6025 30.4235 76.8271 29.9893C77.0667 29.54 77.209 29.0309 77.2539 28.4619C77.2988 27.0544 77.3288 25.7965 77.3438 24.6885C77.3737 23.5654 77.3887 22.6071 77.3887 21.8135C77.3887 20.2262 77.3737 18.7738 77.3438 17.4561C77.3138 16.1383 77.224 15.0153 77.0742 14.0869C76.9245 13.1436 76.6999 12.4173 76.4004 11.9082C76.1159 11.3841 75.7041 11.1221 75.165 11.1221C74.6709 11.1221 74.2067 11.2643 73.7725 11.5488C73.3382 11.8333 72.9564 12.2376 72.627 12.7617C72.3125 13.2708 72.0579 13.8848 71.8633 14.6035C71.6686 15.3223 71.5713 16.1159 71.5713 16.9844V19.9043C71.5713 21.3568 71.5863 22.8018 71.6162 24.2393C71.6462 25.6618 71.6986 27.0993 71.7734 28.5518C71.8184 29.1208 71.9681 29.6074 72.2227 30.0117C72.4922 30.401 72.889 30.693 73.4131 30.8877V31H66.1133V30.8877C66.877 30.723 67.4235 30.4235 67.7529 29.9893C68.0973 29.54 68.292 29.0309 68.3369 28.4619C68.4118 26.9795 68.4717 25.5869 68.5166 24.2842C68.5615 22.9665 68.584 21.6787 68.584 20.4209C68.584 18.6989 68.569 17.2689 68.5391 16.1309C68.5091 14.9928 68.3893 14.0869 68.1797 13.4131C67.985 12.7243 67.6631 12.2376 67.2139 11.9531C66.7796 11.6686 66.1507 11.5264 65.3271 11.5264V11.4141L71.4141 8.71875C71.2943 9.12305 71.2269 9.59473 71.2119 10.1338C71.1969 10.6579 71.1895 11.2044 71.1895 11.7734C71.4889 11.1445 71.8184 10.6354 72.1777 10.2461C72.5371 9.8418 72.904 9.52734 73.2783 9.30273C73.6527 9.07812 74.0195 8.92839 74.3789 8.85352C74.7533 8.76367 75.0977 8.71875 75.4121 8.71875C76.9694 8.71875 78.1898 9.48242 79.0732 11.0098C79.9717 12.5221 80.4209 14.7533 80.4209 17.7031ZM97.9854 16.9844C97.9704 18.7513 97.9704 20.4658 97.9854 22.1279C98.0153 23.79 98.0827 25.4821 98.1875 27.2041C98.2474 28.1175 98.4795 28.8962 98.8838 29.54C99.2881 30.1689 99.902 30.6182 100.726 30.8877V31H96.5703C96.0911 30.7904 95.7243 30.5059 95.4697 30.1465C95.2301 29.7871 95.0505 29.3903 94.9307 28.9561C94.8408 29.1208 94.6986 29.3379 94.5039 29.6074C94.3242 29.877 94.0846 30.139 93.7852 30.3936C93.5007 30.6331 93.1488 30.8428 92.7295 31.0225C92.3252 31.2171 91.846 31.3219 91.292 31.3369C90.1689 31.3519 89.1882 31.0674 88.3496 30.4834C87.5111 29.8844 86.8073 29.0609 86.2383 28.0127C85.6693 26.9495 85.2425 25.6917 84.958 24.2393C84.6735 22.7868 84.5312 21.207 84.5312 19.5C84.5312 17.8079 84.7035 16.2956 85.0479 14.9629C85.3923 13.6302 85.8714 12.4997 86.4854 11.5713C87.1143 10.6429 87.8555 9.93913 88.709 9.45996C89.5775 8.96582 90.5283 8.71875 91.5615 8.71875C91.8311 8.71875 92.123 8.75618 92.4375 8.83105C92.752 8.89095 93.0664 9.00326 93.3809 9.16797C93.6953 9.31771 93.9873 9.51986 94.2568 9.77441C94.5413 10.014 94.7734 10.306 94.9531 10.6504C94.9531 9.25781 94.9456 8.0599 94.9307 7.05664C94.9157 6.05339 94.8109 5.22982 94.6162 4.58594C94.4365 3.92708 94.1221 3.44043 93.6729 3.12598C93.2386 2.81152 92.5947 2.6543 91.7412 2.6543V2.54199L98.2773 0.745117C98.2174 1.28418 98.1725 2.01042 98.1426 2.92383C98.1126 3.83724 98.0827 4.82552 98.0527 5.88867C98.0378 6.95182 98.0228 8.02995 98.0078 9.12305C98.0078 10.2161 98.0078 11.2194 98.0078 12.1328L97.9854 16.9844ZM91.6738 29.293C92.4674 29.293 93.1712 28.8812 93.7852 28.0576C94.3991 27.234 94.7435 25.9987 94.8184 24.3516C94.8633 23.6029 94.8932 22.8991 94.9082 22.2402C94.9382 21.5664 94.9531 20.915 94.9531 20.2861C94.9681 19.6423 94.9756 19.0059 94.9756 18.377C94.9906 17.748 94.998 17.0967 94.998 16.4229C94.998 15.0752 94.8857 14.027 94.6611 13.2783C94.4365 12.5296 94.167 11.9831 93.8525 11.6387C93.5531 11.2793 93.2386 11.0622 92.9092 10.9873C92.5947 10.9124 92.3402 10.875 92.1455 10.875C89.3154 10.875 87.9004 13.75 87.9004 19.5C87.9004 21.0872 87.9902 22.4948 88.1699 23.7227C88.3496 24.9355 88.6042 25.9538 88.9336 26.7773C89.278 27.6009 89.6748 28.2298 90.124 28.6641C90.5882 29.0833 91.1048 29.293 91.6738 29.293Z" fill="#2F95F3"/>
</g>
<defs>
<filter id="filter0_i_2_2" x="0.078125" y="0.745117" width="100.647" height="39.1963" filterUnits="userSpaceOnUse" color-interpolation-filters="sRGB">
<feFlood flood-opacity="0" result="BackgroundImageFix"/>
<feBlend mode="normal" in="SourceGraphic" in2="BackgroundImageFix" result="shape"/>
<feColorMatrix in="SourceAlpha" type="matrix" values="0 0 0 0 0 0 0 0 0 0 0 0 0 0 0 0 0 0 127 0" result="hardAlpha"/>
<feOffset dy="4"/>
<feGaussianBlur stdDeviation="2"/>
<feComposite in2="hardAlpha" operator="arithmetic" k2="-1" k3="1"/>
<feColorMatrix type="matrix" values="0 0 0 0 0 0 0 0 0 0 0 0 0 0 0 0 0 0 0.25 0"/>
<feBlend mode="normal" in2="shape" result="effect1_innerShadow_2_2"/>
</filter>
</defs>
</svg>
